<svg width="58" height="58" viewBox="0 0 58 58" fill="none" xmlns="http://www.w3.org/2000/svg">
<rect width="58" height="58" rx="6" fill="#FFF4F6"/>
<path d="M23.6936 26.7559C23.2769 26.7559 22.9436 27.0924 22.9436 27.5059C22.9436 27.9193 23.2769 28.2559 23.6936 28.2559H34.3066C34.722 28.2559 35.0566 27.9196 35.0566 27.5059C35.0566 27.0921 34.722 26.7559 34.3066 26.7559H23.6936Z" fill="#E84B50"/>
<path d="M23.6936 30.0371C23.2772 30.0371 22.9436 30.3724 22.9436 30.7871C22.9436 31.1992 23.2766 31.5371 23.6936 31.5371H34.3066C34.7223 31.5371 35.0566 31.1995 35.0566 30.7871C35.0566 30.372 34.7217 30.0371 34.3066 30.0371H23.6936Z" fill="#E84B50"/>
<path d="M22.9436 34.0684C22.9436 33.6536 23.2772 33.3184 23.6936 33.3184H34.3066C34.7217 33.3184 35.0566 33.6533 35.0566 34.0684C35.0566 34.4808 34.7223 34.8184 34.3066 34.8184H23.6936C23.2766 34.8184 22.9436 34.4805 22.9436 34.0684Z" fill="#E84B50"/>
<path fill-rule="evenodd" clip-rule="evenodd" d="M29.0002 17.7498C31.2301 17.7498 33.1619 19.0115 35.1862 20.3336L35.2092 20.3486C37.202 21.6501 39.3158 23.0307 41.9896 23.5324C42.0442 23.3231 42.0984 23.1142 42.1498 22.9114C42.7048 20.75 43.2116 18.776 43.8937 17.4005C44.2357 16.711 44.6332 16.1468 45.1246 15.7843C45.6258 15.4145 46.2108 15.2651 46.8914 15.3846C47.2195 15.443 47.6704 15.5996 48.0576 16.0054C48.4462 16.4128 48.7481 17.0471 48.8215 18.018C48.9574 19.8127 48.2588 22.3285 47.015 24.576C45.7931 26.7842 44.0124 28.7921 41.8976 29.6059C40.5799 33.3659 38.7485 36.7516 36.5673 39.2095C34.3663 41.6897 31.7853 43.2498 29.0002 43.2498C26.2148 43.2498 23.6338 41.6897 21.4328 39.2095C19.2516 36.7516 17.4202 33.3659 16.1025 29.6059C13.9878 28.7921 12.2071 26.7842 10.9851 24.576C9.74133 22.3285 9.04266 19.8127 9.17864 18.018C9.252 17.0471 9.55387 16.4128 9.94256 16.0054C10.3297 15.5996 10.7806 15.443 11.1087 15.3846C11.7893 15.2651 12.3743 15.4145 12.8755 15.7843C13.3669 16.1468 13.7644 16.711 14.1064 17.4005C14.7885 18.776 15.2954 20.75 15.8503 22.9114C15.9017 23.1142 15.9559 23.3231 16.0105 23.5324C18.6843 23.0307 20.7981 21.6501 22.7909 20.3486L22.8139 20.3336C24.8382 19.0115 26.77 17.7498 29.0002 17.7498ZM26.3849 19.9437C27.2707 19.5129 28.1229 19.2495 29.0002 19.2495C29.8775 19.2495 30.7295 19.5129 31.6152 19.9437C32.5036 20.3757 33.41 20.9679 34.4014 21.6161L34.405 21.6185C36.4235 22.9399 38.7176 24.4417 41.6687 25.0053C40.6966 29.1579 38.9871 33.3185 36.8015 36.4557C34.564 39.6674 31.8698 41.7498 29.0002 41.7498C26.1303 41.7498 23.4361 39.6674 21.1986 36.4557C19.013 33.3185 17.3035 29.1579 16.3314 25.0053C19.2825 24.4417 21.5766 22.9399 23.5951 21.6185L23.5987 21.6161C24.5901 20.9679 25.4965 20.3757 26.3849 19.9437ZM45.0258 18.5299C44.5172 19.7327 44.0787 21.431 43.6035 23.2832C43.5938 23.3209 43.5635 23.4484 43.518 23.6394C43.3298 24.4305 42.8795 26.3229 42.5317 27.5796C43.9009 26.6412 45.0894 25.0865 45.9456 23.4072C46.9132 21.5093 47.4301 19.5044 47.327 18.1323C47.294 17.7019 47.2067 17.3944 47.0844 17.1909C46.9675 16.9965 46.8188 16.8952 46.6321 16.8624C46.3512 16.8128 46.0893 16.9111 45.8199 17.1886C45.5433 17.4734 45.2805 17.9275 45.0258 18.5299ZM12.9743 18.5299C13.4829 19.7327 13.9214 21.431 14.3967 23.2832C14.4063 23.321 14.4365 23.448 14.4821 23.6395C14.6704 24.4306 15.1206 26.3229 15.4684 27.5796C14.0992 26.6412 12.9108 25.0865 12.0546 23.4072C11.0869 21.5093 10.57 19.5044 10.6731 18.1323C10.7061 17.7019 10.7934 17.3944 10.9157 17.1909C11.0326 16.9965 11.1813 16.8952 11.368 16.8624C11.6489 16.8128 11.9108 16.9111 12.1802 17.1886C12.4568 17.4734 12.7196 17.9275 12.9743 18.5299Z" fill="#E84B50"/>
</svg>
