<svg width="58" height="58" viewBox="0 0 58 58" fill="none" xmlns="http://www.w3.org/2000/svg">
<rect width="58" height="58" rx="6" fill="#F4FDE9"/>
<path fill-rule="evenodd" clip-rule="evenodd" d="M14.003 12.6138C13.3553 12.6138 12.75 13.1286 12.75 13.8658V44.1288C12.75 44.8671 13.3554 45.3808 14.003 45.3808C14.2363 45.3808 14.4768 45.3138 14.6939 45.1686L22.0757 40.2478H35.9243L43.3061 45.1686C43.5232 45.3138 43.7637 45.3808 43.997 45.3808C44.6446 45.3808 45.25 44.8671 45.25 44.1288V13.8658C45.25 13.1286 44.6447 12.6138 43.997 12.6138C43.763 12.6138 43.5223 12.6826 43.3063 12.8258L35.9243 17.7478H22.0757L14.6931 12.8254C14.4771 12.6822 14.237 12.6138 14.003 12.6138ZM37.25 28.2478V18.6666L43.75 14.3339V28.2478H37.25ZM14.2521 28.2478L14.2549 14.3359L20.75 18.6666V28.2478H14.2521ZM22.3 38.6978V19.2978H35.7V38.6978H22.3ZM14.2501 43.6616L14.252 29.7478H20.75V39.329L14.2501 43.6616ZM37.25 39.329V29.7478H43.75V43.6617L37.25 39.329Z" fill="#87C13C"/>
</svg>
