<svg width="58" height="58" viewBox="0 0 58 58" fill="none" xmlns="http://www.w3.org/2000/svg">
<rect width="58" height="58" rx="6" fill="#FFF4F6"/>
<path fill-rule="evenodd" clip-rule="evenodd" d="M39.4998 30.0005C35.2187 30.0005 31.7498 33.4694 31.7498 37.7505C31.7498 42.0316 35.2187 45.5005 39.4998 45.5005C43.7808 45.5005 47.2498 42.0316 47.2498 37.7505C47.2498 33.4694 43.7808 30.0005 39.4998 30.0005ZM39.4998 44.0005C36.0538 44.0005 33.2498 41.1964 33.2498 37.7505C33.2498 34.3046 36.0538 31.5005 39.4998 31.5005C42.9457 31.5005 45.7498 34.3046 45.7498 37.7505C45.7498 41.1964 42.9457 44.0005 39.4998 44.0005Z" fill="#E84B50"/>
<path fill-rule="evenodd" clip-rule="evenodd" d="M50.03 9.03029C50.3229 8.73741 50.3223 8.26346 50.0305 7.97019C49.7379 7.67756 49.2621 7.6771 48.9695 7.96974L40.8698 16.0694C40.5576 14.3172 39.0309 12.9785 37.1873 12.9785C35.1191 12.9785 33.4373 14.6615 33.4373 16.7285C33.4373 18.5722 34.776 20.099 36.5283 20.4118L34.1489 22.7904L32.9296 18.5238C32.7044 17.736 31.9525 17.2075 31.1455 17.2519L31.1441 17.252C29.0063 17.3818 26.7454 18.6358 24.8465 20.3306C22.9443 22.0284 21.3695 24.2001 20.617 26.2213C20.3097 27.0454 20.6589 27.9775 21.4306 28.3891L26.072 30.8681L24.313 32.6263C22.8929 31.0169 20.8153 30.0005 18.4993 30.0005C14.2192 30.0005 10.7492 33.4694 10.7492 37.7505C10.7492 40.0666 11.7665 42.1442 13.376 43.5642L7.96902 48.9702C7.67724 49.2635 7.67659 49.7374 7.96947 50.0303C8.11581 50.1766 8.30803 50.2505 8.49925 50.2505C8.6912 50.2505 8.8835 50.1768 9.03003 50.0303L14.614 44.4473C15.7558 45.1132 17.0807 45.5005 18.4993 45.5005C22.7803 45.5005 26.2493 42.0306 26.2493 37.7505C26.2493 36.3309 25.8619 35.0069 25.196 33.8644L27.454 31.6073L29.1123 32.492C29.2107 32.5451 29.2599 32.6523 29.2328 32.7666L27.8339 38.7542C27.7382 39.1578 27.9897 39.5621 28.3926 39.6558C28.4471 39.6687 28.5055 39.6765 28.5643 39.6765C28.9038 39.6765 29.214 39.4417 29.2939 39.0956L30.6937 33.1083C30.8732 32.339 30.5146 31.5407 29.819 31.169L28.5625 30.4979L33.6926 25.3677C33.9848 25.6007 34.3497 25.7505 34.7533 25.7505H41.5093C41.9233 25.7505 42.2593 25.4146 42.2593 25.0005C42.2593 24.5864 41.9233 24.2505 41.5093 24.2505H34.8099L39.1532 19.9081C39.6464 19.602 40.0599 19.1873 40.3658 18.6945L50.03 9.03029ZM31.4869 18.9362L32.9345 24.0047L27.1795 29.7597L22.1374 27.0672C22.0261 27.0071 21.9743 26.8759 22.0236 26.7447C22.6884 24.9581 24.0834 23.0075 25.7791 21.4755C27.4785 19.9402 29.4437 18.8577 31.2356 18.749C31.3527 18.7418 31.4522 18.8138 31.4869 18.9362ZM37.1873 18.9785C35.9473 18.9785 34.9373 17.9694 34.9373 16.7285C34.9373 15.4886 35.9473 14.4785 37.1873 14.4785C38.4281 14.4785 39.4373 15.4885 39.4373 16.7285C39.4373 17.1036 39.3364 17.4542 39.1685 17.7717L38.2294 18.7098C37.913 18.8776 37.5625 18.9785 37.1873 18.9785ZM24.7493 37.7505C24.7493 41.1964 21.9452 44.0005 18.4993 44.0005C17.5002 44.0005 16.5572 43.7614 15.7185 43.3418L16.8575 42.2028C17.0755 42.2843 17.302 42.3536 17.5392 42.4026C17.5947 42.4156 17.6486 42.4195 17.6943 42.4195C18.043 42.4195 18.3546 42.175 18.428 41.8203C18.4968 41.4889 18.3341 41.1625 18.0505 41.0098L24.0915 34.9698C24.5109 35.8083 24.7493 36.7514 24.7493 37.7505ZM12.2492 37.7505C12.2492 34.3046 15.0533 31.5005 18.4993 31.5005C20.3973 31.5005 22.097 32.3534 23.2448 33.6944L16.5774 40.3619C15.8669 39.8417 15.3795 39.0481 15.2716 38.1328C15.2252 37.7252 14.8607 37.4219 14.4378 37.4754C14.0293 37.524 13.7339 37.895 13.7829 38.3064C13.9296 39.5684 14.5709 40.6703 15.5091 41.4301L14.4432 42.496C13.1021 41.3482 12.2492 39.6486 12.2492 37.7505Z" fill="#E84B50"/>
<path fill-rule="evenodd" clip-rule="evenodd" d="M39.4305 41.8216C39.5143 41.4161 39.253 41.0178 38.8475 40.936C37.4704 40.6526 36.4376 39.5268 36.274 38.1333C36.2274 37.7241 35.8586 37.4238 35.4405 37.4758C35.0316 37.5243 34.7361 37.8957 34.7854 38.3074C35.0229 40.3453 36.5333 41.9916 38.5424 42.4033C38.5975 42.4159 38.6498 42.42 38.6967 42.42C39.0452 42.42 39.357 42.1755 39.4305 41.8216Z" fill="#E84B50"/>
</svg>
