<svg width="58" height="58" viewBox="0 0 58 58" fill="none" xmlns="http://www.w3.org/2000/svg">
<rect width="58" height="58" rx="6" fill="#FFFAEB"/>
<path fill-rule="evenodd" clip-rule="evenodd" d="M50.0303 7.96853C49.7368 7.6765 49.2632 7.6765 48.9697 7.96853L44.2851 12.6531C44.1937 12.6303 44.0971 12.6168 43.997 12.6168C43.7638 12.6168 43.5231 12.6841 43.3063 12.8278L35.9243 17.7498H22.0757L14.6931 12.8274C14.4764 12.6837 14.2362 12.6168 14.003 12.6168C13.3556 12.6168 12.75 13.1303 12.75 13.8678V44.1318C12.75 44.151 12.7514 44.1691 12.7535 44.1857L7.96878 48.9694C7.67675 49.263 7.67675 49.7366 7.96878 50.0301L7.97014 50.0314C8.1164 50.1762 8.30821 50.2498 8.50001 50.2498C8.6918 50.2498 8.88362 50.1762 9.02987 50.0314L9.0308 50.0305L13.7143 45.346C13.8062 45.3692 13.9029 45.3828 14.003 45.3828C14.2362 45.3828 14.477 45.3154 14.6937 45.1718L22.0757 40.2498H35.9243L43.3069 45.1721C43.5236 45.3158 43.7638 45.3828 43.997 45.3828C44.6444 45.3828 45.25 44.8692 45.25 44.1318V13.8678C45.25 13.8485 45.2486 13.8304 45.2465 13.8138L50.0312 9.03009C50.3233 8.73656 50.3233 8.26296 50.0312 7.96944L50.0303 7.96853ZM14.2521 28.2498L14.2549 14.3379L20.75 18.6685V28.2498H14.2521ZM37.25 28.2498V21.8103L43.75 15.3103V28.2498H37.25ZM37.25 19.6892V18.6686L40.3108 16.6285L37.25 19.6892ZM22.3 34.6392V19.2998H35.7V21.2392L22.3 34.6392ZM22.3 38.6998V36.7603L35.7 23.3603V38.6998H22.3ZM14.2501 42.6891L14.252 29.7498H20.75V36.1892L14.2501 42.6891ZM37.25 39.331V29.7498H43.75V43.6646L37.25 39.331ZM20.75 39.331L17.6887 41.3717L20.75 38.3103V39.331Z" fill="#EFBE1D"/>
</svg>
