<svg width="58" height="58" viewBox="0 0 58 58" fill="none" xmlns="http://www.w3.org/2000/svg">
<rect width="58" height="58" rx="6" fill="#FFF4F6"/>
<path fill-rule="evenodd" clip-rule="evenodd" d="M22.4998 10.75C22.0858 10.75 21.7498 11.0859 21.7498 11.5V24.25H21.4998C21.0858 24.25 20.7498 24.5859 20.7498 25C20.7498 25.4141 21.0858 25.75 21.4998 25.75H21.7498V28.75H16.4768C16.0648 28.75 15.7358 29.0849 15.7358 29.5C15.7358 29.9018 16.0616 30.25 16.4768 30.25H21.7498V33.25H20.4858C20.0718 33.25 19.7358 33.5859 19.7358 34C19.7358 34.4141 20.0718 34.75 20.4858 34.75H21.7498V45.75H20.9928C20.5788 45.75 20.2428 46.0859 20.2428 46.5C20.2428 46.9141 20.5788 47.25 20.9928 47.25H36.9928C37.4082 47.25 37.7428 46.9137 37.7428 46.5C37.7428 46.0863 37.4082 45.75 36.9928 45.75H35.2498V34.747H44.9468C46.2169 34.747 47.2498 33.7141 47.2498 32.444C47.2498 31.1739 46.2169 30.141 44.9468 30.141C43.9806 30.141 43.1118 30.7509 42.7819 31.6575C42.6398 32.0471 42.8405 32.4778 43.2296 32.619C43.6204 32.7607 44.0507 32.561 44.191 32.1699C44.3062 31.8541 44.6111 31.641 44.9468 31.641C45.3889 31.641 45.7498 32.0012 45.7498 32.444C45.7498 32.8859 45.3888 33.247 44.9468 33.247H35.2498V30.25H40.4858C40.9012 30.25 41.2358 29.9137 41.2358 29.5C41.2358 29.0863 40.9012 28.75 40.4858 28.75H35.2498V25.749H40.9338C42.2031 25.749 43.2358 24.7159 43.2358 23.445C43.2358 22.1748 42.2028 21.143 40.9338 21.143C39.9668 21.143 39.0967 21.7527 38.7678 22.6598C38.6256 23.0501 38.8286 23.4802 39.2168 23.6211C39.605 23.7614 40.0365 23.5635 40.177 23.1718C40.2922 22.856 40.5961 22.643 40.9338 22.643C41.3758 22.643 41.7358 23.0031 41.7358 23.445C41.7358 23.8884 41.3753 24.249 40.9338 24.249H35.2498V11.5C35.2498 11.0859 34.9139 10.75 34.4998 10.75H22.4998ZM23.2498 24.25V12.25H33.7498V45.75H23.2498V34.75H26.4858C26.9012 34.75 27.2358 34.4137 27.2358 34C27.2358 33.5863 26.9012 33.25 26.4858 33.25H23.2498V30.25H26.4958C26.9117 30.25 27.2358 29.9011 27.2358 29.5C27.2358 29.0856 26.9085 28.75 26.4958 28.75H23.2498V25.75H26.4858C26.9012 25.75 27.2358 25.4137 27.2358 25C27.2358 24.5863 26.9012 24.25 26.4858 24.25H23.2498Z" fill="#E84B50"/>
<path d="M13.4861 33.25C13.072 33.25 12.7361 33.5859 12.7361 34C12.7361 34.4141 13.072 34.75 13.4861 34.75H14.4861C14.9002 34.75 15.2361 34.4141 15.2361 34C15.2361 33.5859 14.9002 33.25 14.4861 33.25H13.4861Z" fill="#E84B50"/>
<path d="M17.4861 33.25C17.0723 33.25 16.7361 33.5796 16.7361 33.99C16.7361 34.4032 17.0632 34.75 17.4861 34.75C17.8984 34.75 18.2361 34.4058 18.2361 33.99C18.2361 33.5771 17.8892 33.25 17.4861 33.25Z" fill="#E84B50"/>
<path d="M13.4863 28.75C13.0669 28.75 12.7363 29.0823 12.7363 29.5C12.7363 29.9045 13.0637 30.25 13.4863 30.25C13.9009 30.25 14.2263 29.9015 14.2263 29.5C14.2263 29.0852 13.8977 28.75 13.4863 28.75Z" fill="#E84B50"/>
<path d="M18.4998 24.249C18.0817 24.249 17.7498 24.581 17.7498 24.999C17.7498 25.4171 18.0817 25.749 18.4998 25.749C18.9046 25.749 19.2498 25.4203 19.2498 24.999C19.2498 24.5777 18.9046 24.249 18.4998 24.249Z" fill="#E84B50"/>
<path d="M13.4858 24.25C13.0718 24.25 12.7358 24.5859 12.7358 25C12.7358 25.4141 13.0718 25.75 13.4858 25.75H15.4998C15.9139 25.75 16.2498 25.4141 16.2498 25C16.2498 24.5859 15.9139 24.25 15.4998 24.25H13.4858Z" fill="#E84B50"/>
</svg>
