<svg width="58" height="58" viewBox="0 0 58 58" fill="none" xmlns="http://www.w3.org/2000/svg">
<rect width="58" height="58" rx="6" fill="#FFFAEB"/>
<path fill-rule="evenodd" clip-rule="evenodd" d="M39.5 30C35.2189 30 31.75 33.4689 31.75 37.75C31.75 42.0311 35.2189 45.5 39.5 45.5C43.7811 45.5 47.25 42.0311 47.25 37.75C47.25 33.4689 43.7811 30 39.5 30ZM39.5 31.5C42.9459 31.5 45.75 34.3041 45.75 37.75C45.75 41.1959 42.9459 44 39.5 44C36.0541 44 33.25 41.1959 33.25 37.75C33.25 34.3041 36.0541 31.5 39.5 31.5Z" fill="#EFBE1D"/>
<path fill-rule="evenodd" clip-rule="evenodd" d="M39.4283 41.8204C39.5121 41.4148 39.2509 41.0166 38.8453 40.9348C37.4682 40.6514 36.4354 39.5255 36.2718 38.1321C36.2252 37.7229 35.8564 37.4226 35.4383 37.4746C35.0294 37.5231 34.7339 37.8945 34.7832 38.3061C35.0207 40.3441 36.5311 41.9904 38.5402 42.4021C38.5953 42.4147 38.6476 42.4188 38.6945 42.4188C39.043 42.4188 39.3548 42.1743 39.4283 41.8204Z" fill="#EFBE1D"/>
<path fill-rule="evenodd" clip-rule="evenodd" d="M33.4375 16.7285C33.4375 18.7966 35.1194 20.4785 37.1875 20.4785C39.2556 20.4785 40.9375 18.7966 40.9375 16.7285C40.9375 14.6604 39.2556 12.9785 37.1875 12.9785C35.1194 12.9785 33.4375 14.6604 33.4375 16.7285ZM34.9375 16.7285C34.9375 15.4886 35.9476 14.4785 37.1875 14.4785C38.4284 14.4785 39.4375 15.4885 39.4375 16.7285C39.4375 17.9694 38.4284 18.9785 37.1875 18.9785C35.9475 18.9785 34.9375 17.9694 34.9375 16.7285Z" fill="#EFBE1D"/>
<path d="M31.4873 18.9355L33.0722 24.4804C33.2858 25.2286 33.9758 25.7498 34.7536 25.7498H41.5096C41.9234 25.7498 42.2596 25.4152 42.2596 24.9998C42.2596 24.5857 41.9237 24.2498 41.5096 24.2498H34.7536C34.6436 24.2498 34.5443 24.1752 34.5141 24.0692L32.93 18.5231C32.7048 17.7354 31.9529 17.2068 31.1459 17.2511L31.1445 17.2512C29.0071 17.381 26.7463 18.6353 24.8473 20.3304C22.945 22.0283 21.3699 24.2003 20.6174 26.2214C20.3102 27.0444 20.6594 27.9778 21.4312 28.3885L29.1131 32.4924C29.2106 32.5443 29.2602 32.6522 29.2332 32.7659L27.8343 38.7543C27.7384 39.1573 27.9904 39.5614 28.393 39.655C28.4474 39.6679 28.5059 39.6758 28.5646 39.6758C28.9049 39.6758 29.2143 39.4419 29.2943 39.0947L30.6941 33.1076C30.8736 32.3382 30.515 31.54 29.8194 31.1682L22.1377 27.0664C22.0264 27.0064 21.9744 26.8764 22.0239 26.7439C22.1177 26.4918 22.2261 26.2365 22.3477 25.9795C23.0884 24.4153 24.323 22.7909 25.7795 21.4751C27.4787 19.9401 29.4436 18.8576 31.2353 18.7483C31.3539 18.7417 31.4529 18.8141 31.4873 18.9355Z" fill="#EFBE1D"/>
<path fill-rule="evenodd" clip-rule="evenodd" d="M18.5 30C14.2189 30 10.75 33.4689 10.75 37.75C10.75 42.0311 14.2189 45.5 18.5 45.5C22.7811 45.5 26.25 42.0311 26.25 37.75C26.25 33.4689 22.7811 30 18.5 30ZM18.5 31.5C21.9459 31.5 24.75 34.3041 24.75 37.75C24.75 41.1959 21.9459 44 18.5 44C15.0541 44 12.25 41.1959 12.25 37.75C12.25 34.3041 15.0541 31.5 18.5 31.5Z" fill="#EFBE1D"/>
<path d="M17.6946 42.4188C18.0431 42.4188 18.3549 42.1745 18.4284 41.8206C18.5122 41.4149 18.2519 41.0164 17.8459 40.9349C16.4686 40.6516 15.4355 39.5257 15.2719 38.1321C15.2254 37.7237 14.8614 37.4226 14.4386 37.4746C14.0295 37.523 13.7337 37.8938 13.7833 38.3057C14.0206 40.3439 15.5311 41.9904 17.5404 42.4021C17.5954 42.4147 17.6478 42.4188 17.6946 42.4188Z" fill="#EFBE1D"/>
</svg>
